<mxfile host="app.diagrams.net" modified="2024-05-25T09:24:39.286Z" agent="Mozilla/5.0 (Macintosh; Intel Mac OS X 10_15_7) AppleWebKit/605.1.15 (KHTML, like Gecko) Version/16.5.1 Safari/605.1.15" version="24.4.8" etag="Zn8520QuULjCxCYHH7Ek" type="github">
  <diagram name="PÃ¡gina-1" id="ZvBGF97jnMDSy4AFGPbm">
    <mxGraphModel>
      <root>
        <mxCell id="0" />
        <mxCell id="1" parent="0" />
      </root>
    </mxGraphModel>
  </diagram>
</mxfile>
